<svg xmlns="http://www.w3.org/2000/svg" width="100" height="100" viewBox="0 0 100 100">
  <defs>
    <pattern id="jaguar" patternUnits="userSpaceOnUse" width="100" height="100">
      <g fill="#1A3A7A" fill-opacity="0.1">
        <path d="M22.5 10C17.8 10 14 13.8 14 18.5S17.8 27 22.5 27 31 23.2 31 18.5 27.2 10 22.5 10zm-3 8.5a3 3 0 1 1 0-6 3 3 0 0 1 0 6zM77.5 40C72.8 40 69 43.8 69 48.5S72.8 57 77.5 57 86 53.2 86 48.5 82.2 40 77.5 40zm-3 8.5a3 3 0 1 1 0-6 3 3 0 0 1 0 6zM50 75a7.5 7.5 0 1 0 0-15 7.5 7.5 0 0 0 0 15zm-2.5-4a2.5 2.5 0 1 1 0-5 2.5 2.5 0 0 1 0 5z"/>
      </g>
    </pattern>
  </defs>
  <rect width="100%" height="100%" fill="url(#jaguar)"/>
</svg>